GIL12_fast2_ik
nRows=3
nColumns=375

# SIMM Motion File Header:
name GIL12_fast2_ik
datacolumns 375
datarows 3
otherdata 1
range 0.69167000 0.70833000
endheader
time	pelvis_tx	pelvis_ty	pelvis_tz	pelvis_tilt	pelvis_list	pelvis_rotation	hip_flexion_r	hip_adduction_r	hip_rotation_r	knee_angle_r	ankle_angle_r	hip_flexion_l	hip_adduction_l	hip_rotation_l	knee_angle_l	ankle_angle_l	lumbar_extension	lumbar_bending	lumbar_rotation	subtalar_angle_r	mtp_angle_r	subtalar_angle_l	mtp_angle_l	asis_r_px	asis_r_py	asis_r_pz	asis_l_px	asis_l_py	asis_l_pz	midasis_px	midasis_py	midasis_pz	psis_r_px	psis_r_py	psis_r_pz	psis_l_px	psis_l_py	psis_l_pz	hip_r_px	hip_r_py	hip_r_pz	hip_l_px	hip_l_py	hip_l_pz	midhip_px	midhip_py	midhip_pz	epicondLat_r_px	epicondLat_r_py	epicondLat_r_pz	epicondMed_r_px	epicondMed_r_py	epicondMed_r_pz	thighwand_r_px	thighwand_r_py	thighwand_r_pz	upperleg1_r_px	upperleg1_r_py	upperleg1_r_pz	upperleg2_r_px	upperleg2_r_py	upperleg2_r_pz	malleolusLat_r_px	malleolusLat_r_py	malleolusLat_r_pz	malleolusMedv_r_px	malleolusMedv_r_py	malleolusMedv_r_pz	shankwand_r_px	shankwand_r_py	shankwand_r_pz	lowerleg1_r_px	lowerleg1_r_py	lowerleg1_r_pz	knee_r_px	knee_r_py	knee_r_pz	ankle_r_px	ankle_r_py	ankle_r_pz	toe_r_px	toe_r_py	toe_r_pz	epicondLat_l_px	epicondLat_l_py	epicondLat_l_pz	epicondMed_l_px	epicondMed_l_py	epicondMed_l_pz	thighwand_l_px	thighwand_l_py	thighwand_l_pz	upperleg1_l_px	upperleg1_l_py	upperleg1_l_pz	upperleg2_l_px	upperleg2_l_py	upperleg2_l_pz	malleolusLat_l_px	malleolusLat_l_py	malleolusLat_l_pz	malleolusMedv_l_px	malleolusMedv_l_py	malleolusMedv_l_pz	shankwand_l_px	shankwand_l_py	shankwand_l_pz	lowerleg1_l_px	lowerleg1_l_py	lowerleg1_l_pz	knee_l_px	knee_l_py	knee_l_pz	ankle_l_px	ankle_l_py	ankle_l_pz	toe_l_px	toe_l_py	toe_l_pz	subclavicle_r_px	subclavicle_r_py	subclavicle_r_pz	subclavicle_l_px	subclavicle_l_py	subclavicle_l_pz	neck_px	neck_py	neck_pz	sternalnotch_px	sternalnotch_py	sternalnotch_pz	xyphoidprocess_px	xyphoidprocess_py	xyphoidprocess_pz	midhip_tx	midhip_ty	midhip_tz	hip_r_tx	hip_r_ty	hip_r_tz	hip_l_tx	hip_l_ty	hip_l_tz	knee_r_tx	knee_r_ty	knee_r_tz	knee_l_tx	knee_l_ty	knee_l_tz	ankle_r_tx	ankle_r_ty	ankle_r_tz	ankle_l_tx	ankle_l_ty	ankle_l_tz	midasis_tx	midasis_ty	midasis_tz	asis_r_tx	asis_r_ty	asis_r_tz	asis_l_tx	asis_l_ty	asis_l_tz	psis_r_tx	psis_r_ty	psis_r_tz	psis_l_tx	psis_l_ty	psis_l_tz	epicondLat_r_tx	epicondLat_r_ty	epicondLat_r_tz	epicondLat_l_tx	epicondLat_l_ty	epicondLat_l_tz	epicondMed_r_tx	epicondMed_r_ty	epicondMed_r_tz	epicondMed_l_tx	epicondMed_l_ty	epicondMed_l_tz	malleolusLat_r_tx	malleolusLat_r_ty	malleolusLat_r_tz	malleolusLat_l_tx	malleolusLat_l_ty	malleolusLat_l_tz	malleolusMedv_r_tx	malleolusMedv_r_ty	malleolusMedv_r_tz	malleolusMedv_l_tx	malleolusMedv_l_ty	malleolusMedv_l_tz	neck_tx	neck_ty	neck_tz	subclavicle_r_tx	subclavicle_r_ty	subclavicle_r_tz	subclavicle_l_tx	subclavicle_l_ty	subclavicle_l_tz	sternalnotch_tx	sternalnotch_ty	sternalnotch_tz	xyphoidprocess_tx	xyphoidprocess_ty	xyphoidprocess_tz	thighwand_r_tx	thighwand_r_ty	thighwand_r_tz	thighwand_l_tx	thighwand_l_ty	thighwand_l_tz	upperleg1_r_tx	upperleg1_r_ty	upperleg1_r_tz	upperleg1_l_tx	upperleg1_l_ty	upperleg1_l_tz	upperleg2_r_tx	upperleg2_r_ty	upperleg2_r_tz	upperleg2_l_tx	upperleg2_l_ty	upperleg2_l_tz	shankwand_r_tx	shankwand_r_ty	shankwand_r_tz	shankwand_l_tx	shankwand_l_ty	shankwand_l_tz	lowerleg1_r_tx	lowerleg1_r_ty	lowerleg1_r_tz	lowerleg1_l_tx	lowerleg1_l_ty	lowerleg1_l_tz	toe_r_tx	toe_r_ty	toe_r_tz	toe_l_tx	toe_l_ty	toe_l_tz	ground_force_vx	ground_force_vy	ground_force_vz	ground_force_px	ground_force_py	ground_force_pz	ground_force_vx	ground_force_vy	ground_force_vz	ground_force_px	ground_force_py	ground_force_pz	ground_torque_x	ground_torque_y	ground_torque_z	ground_torque_x	ground_torque_y	ground_torque_z	ground_marker_px	ground_marker_py	ground_marker_pz	ground_marker_px	ground_marker_py	ground_marker_pz	ground_marker_px	ground_marker_py	ground_marker_pz	ground_marker_px	ground_marker_py	ground_marker_pz	ground_marker_px	ground_marker_py	ground_marker_pz	ground_marker_px	ground_marker_py	ground_marker_pz	ground_marker_px	ground_marker_py	ground_marker_pz	ground_marker_px	ground_marker_py	ground_marker_pz	ground_marker_px	ground_marker_py	ground_marker_pz	ground_marker_px	ground_marker_py	ground_marker_pz	ground_marker_px	ground_marker_py	ground_marker_pz	ground_marker_px	ground_marker_py	ground_marker_pz	ground_marker_px	ground_marker_py	ground_marker_pz	ground_marker_px	ground_marker_py	ground_marker_pz	ground_marker_px	ground_marker_py	ground_marker_pz	ground_marker_px	ground_marker_py	ground_marker_pz	ground_marker_px	ground_marker_py	ground_marker_pz	ground_marker_px	ground_marker_py	ground_marker_pz	ground_marker_px	ground_marker_py	ground_marker_pz	ground_marker_px	ground_marker_py	ground_marker_pz	ground_marker_px	ground_marker_py	ground_marker_pz	ground_marker_px	ground_marker_py	ground_marker_pz	ground_marker_px	ground_marker_py	ground_marker_pz	ground_marker_px	ground_marker_py	ground_marker_pz	ground_marker_px	ground_marker_py	ground_marker_pz	ground_marker_px	ground_marker_py	ground_marker_pz	ground_marker_px	ground_marker_py	ground_marker_pz	ground_marker_px	ground_marker_py	ground_marker_pz	ground_marker_px	ground_marker_py	ground_marker_pz	ground_marker_px	ground_marker_py	ground_marker_pz	ground_marker_px	ground_marker_py	ground_marker_pz	ground_marker_px	ground_marker_py	ground_marker_pz	ground_marker_px	ground_marker_py	ground_marker_pz	ground_marker_px	ground_marker_py	ground_marker_pz	ground_marker_px	ground_marker_py	ground_marker_pz	ground_marker_px	ground_marker_py	ground_marker_pz	ground_marker_px	ground_marker_py	ground_marker_pz
      0.69167000	      1.43957654	      0.69289075	     -0.29362831	      3.36186921	      0.47975301	     -8.04972913	     20.98944936	     -3.23052575	     -6.11582220	    -38.94077800	      1.50051418	    -12.41587203	      1.80230368	     -7.84344448	      0.20851090	      4.36078373	    -21.49958233	     -5.42091073	      2.07373115	      0.00000000	      0.00000000	      0.00000000	      0.00000000	      1.46514990	      0.68214908	     -0.20897853	      1.49115750	      0.68723030	     -0.38139632	      1.44902051	      0.69343430	     -0.29229053	      1.34445672	      0.73756065	     -0.26972026	      1.35672388	      0.73924692	     -0.35412065	      1.38659183	      0.64417832	     -0.24434411	      1.40246738	      0.64605735	     -0.35717952	      1.39452961	      0.64511784	     -0.30076181	      1.50843653	      0.36351055	     -0.16920415	      1.53169422	      0.36396809	     -0.25988605	      1.59873003	      0.49482936	     -0.21103568	      1.49979971	      0.51228554	     -0.18940047	      1.52461756	      0.42813479	     -0.18492569	      1.41945120	      0.07991690	     -0.19861390	      1.44739321	      0.07553574	     -0.25279085	      1.44643820	      0.15753647	     -0.12190399	      1.46950997	      0.21448126	     -0.18118315	      1.51052797	      0.36577759	     -0.21394923	      1.44076841	      0.08616135	     -0.23513997	      1.51225725	      0.04497237	     -0.19168520	      1.35299131	      0.33826717	     -0.40887390	      1.36246672	      0.33577268	     -0.31729347	      1.42149782	      0.40106506	     -0.46881993	      1.43426264	      0.46321136	     -0.38950568	      1.41948748	      0.38162408	     -0.37071517	      1.29152971	      0.05832298	     -0.39812592	      1.31497816	      0.05113322	     -0.33756941	      1.42013718	      0.14576100	     -0.35680890	      1.36491412	      0.21121289	     -0.36882928	      1.35077378	      0.34791895	     -0.35933015	      1.30570158	      0.06249833	     -0.36139068	      1.38893816	      0.03046506	     -0.39978604	      1.48316428	      0.99092108	     -0.26977489	      1.48945803	      0.98488551	     -0.35804530	      1.39320187	      1.02798312	     -0.32007979	      1.46854120	      0.99773830	     -0.30807963	      1.54050771	      0.87553919	     -0.29976957	      1.39749200	      0.63471800	     -0.29859500	      1.39207400	      0.64744600	     -0.24829300	      1.40844200	      0.64642700	     -0.36458700	      1.51498300	      0.36391800	     -0.21351000	      1.35728300	      0.34669900	     -0.35781100	      1.44011000	      0.08404700	     -0.21882100	      1.30930300	      0.06091500	     -0.37034100	      1.44585600	      0.70764900	     -0.30055400	      1.43374800	      0.70840300	     -0.21453100	      1.45796400	      0.70689500	     -0.38657800	      1.31080300	      0.72876100	     -0.26538700	      1.31944500	      0.72753400	     -0.35003100	      1.50318500	      0.36425900	     -0.16904900	      1.35722000	      0.34562400	     -0.40579900	      1.52938600	      0.36487300	     -0.25537600	      1.34660200	      0.34830700	     -0.31715600	      1.42525900	      0.08745300	     -0.18898600	      1.29961900	      0.06389500	     -0.40122200	      1.44484900	      0.08784000	     -0.24774200	      1.30829600	      0.05959700	     -0.33673300	      1.39194400	      1.04585600	     -0.32159400	      1.48289700	      0.97956300	     -0.26937500	      1.48531000	      0.97260400	     -0.35761100	      1.46941900	      0.98919800	     -0.30725600	      1.50995900	      0.85389600	     -0.30056600	      1.60226200	      0.49113000	     -0.21851100	      1.43586700	      0.41458100	     -0.45975400	      1.50811100	      0.51548500	     -0.18545000	      1.43512700	      0.47173500	     -0.37907900	      1.53255900	      0.43144200	     -0.18169100	      1.41377700	      0.39004800	     -0.36096900	      1.45101500	      0.17915200	     -0.11169200	      1.41949900	      0.16037400	     -0.34436300	      1.47449400	      0.22254700	     -0.17376800	      1.36315100	      0.21798300	     -0.36254500	      1.51390400	      0.05431100	     -0.19715400	      1.39319800	      0.03668700	     -0.37803900	      0.00000000	      0.00000000	      0.00000000	      0.83022040	      0.00000000	     -0.23976935	     -0.38827113	    133.76605242	      8.84737853	      1.40023535	      0.00000000	     -0.37903265	      0.00000000	      0.00000000	      0.00000000	      0.00000000	      0.06808156	      0.00000000	      1.39749169	      0.63471782	     -0.29859513	      1.39207399	      0.64744622	     -0.24829319	      1.40844238	      0.64642709	     -0.36458746	      1.51498270	      0.36391827	     -0.21350966	      1.35728300	      0.34669867	     -0.35781074	      1.44011009	      0.08404654	     -0.21882065	      1.30930340	      0.06091534	     -0.37034139	      1.44585621	      0.70764929	     -0.30055445	      1.43374848	      0.70840311	     -0.21453142	      1.45796394	      0.70689547	     -0.38657752	      1.31080294	      0.72876060	     -0.26538664	      1.31944537	      0.72753364	     -0.35003084	      1.50318539	      0.36425865	     -0.16904944	      1.35722005	      0.34562442	     -0.40579867	      1.52938557	      0.36487320	     -0.25537604	      1.34660172	      0.34830719	     -0.31715569	      1.42525864	      0.08745350	     -0.18898645	      1.29961944	      0.06389517	     -0.40122169	      1.44484925	      0.08783984	     -0.24774173	      1.30829597	      0.05959653	     -0.33673260	      1.39194441	      1.04585552	     -0.32159406	      1.48289692	      0.97956288	     -0.26937544	      1.48530984	      0.97260422	     -0.35761118	      1.46941948	      0.98919791	     -0.30725628	      1.50995910	      0.85389566	     -0.30056602	      1.60226214	      0.49112993	     -0.21851073	      1.43586707	      0.41458136	     -0.45975417	      1.50811052	      0.51548457	     -0.18544951	      1.43512666	      0.47173512	     -0.37907904	      1.53255916	      0.43144152	     -0.18169133	      1.41377687	      0.39004776	     -0.36096936	      1.45101464	      0.17915241	     -0.11169180	      1.41949892	      0.16037366	     -0.34436318	      1.47449350	      0.22254676	     -0.17376783	      1.36315107	      0.21798253	     -0.36254549	      1.51390362	      0.05431131	     -0.19715382	      1.39319801	      0.03668733	     -0.37803936
      0.70000000	      1.45108145	      0.69169686	     -0.29416600	      3.52196111	      0.29554931	     -7.83465198	     21.42515452	     -2.69364094	     -4.27323481	    -35.33172352	      1.25025662	    -14.15758663	      1.72397068	     -7.60100196	      1.26126294	      4.33642019	    -21.87464805	     -5.10273468	      2.26278119	      0.00000000	      0.00000000	      0.00000000	      0.00000000	      1.47698533	      0.68131839	     -0.20957142	      1.50236638	      0.68587970	     -0.38209709	      1.46052853	      0.69227157	     -0.29286370	      1.35592124	      0.73618094	     -0.27007292	      1.36788397	      0.73761140	     -0.35452172	      1.39840984	      0.64300536	     -0.24452678	      1.41387946	      0.64454093	     -0.35742375	      1.40614465	      0.64377315	     -0.30097527	      1.52535320	      0.36407389	     -0.17138879	      1.54527897	      0.36388652	     -0.26286155	      1.61291356	      0.49575038	     -0.21766956	      1.51469125	      0.51257814	     -0.19258540	      1.54038676	      0.42868290	     -0.18826936	      1.45502417	      0.07527700	     -0.19108261	      1.48127390	      0.07146325	     -0.24614167	      1.47919954	      0.15650253	     -0.11722145	      1.49611804	      0.21338135	     -0.17860222	      1.52525442	      0.36627060	     -0.21631984	      1.47454848	      0.08205045	     -0.22850576	      1.55012262	      0.04665462	     -0.18689822	      1.35609116	      0.33827634	     -0.40955343	      1.36545760	      0.33540264	     -0.31797290	      1.42630116	      0.39927264	     -0.46938861	      1.44071488	      0.46094309	     -0.38998550	      1.42372357	      0.37976161	     -0.37131103	      1.29229356	      0.05897279	     -0.39921596	      1.31564500	      0.05149618	     -0.33865670	      1.42163983	      0.14522443	     -0.35771199	      1.36699911	      0.21117399	     -0.36967336	      1.35405227	      0.34798581	     -0.35999692	      1.30648140	      0.06297425	     -0.36246754	      1.38944374	      0.03022767	     -0.40085470	      1.49541568	      0.98901602	     -0.26989258	      1.50124732	      0.98329286	     -0.35821553	      1.40531649	      1.02654249	     -0.31960491	      1.48062148	      0.99602192	     -0.30809744	      1.55225147	      0.87357235	     -0.30060708	      1.40880000	      0.63339200	     -0.29798800	      1.40357100	      0.64634700	     -0.24787100	      1.41942200	      0.64496000	     -0.36423300	      1.52980200	      0.36378800	     -0.21479100	      1.36021900	      0.34720600	     -0.35806800	      1.47524000	      0.07975600	     -0.21510900	      1.30971900	      0.06173400	     -0.37027900	      1.45697600	      0.70649400	     -0.30058200	      1.44525700	      0.70751900	     -0.21454400	      1.46869600	      0.70546800	     -0.38662100	      1.32198600	      0.72734700	     -0.26455900	      1.33015300	      0.72599300	     -0.34929000	      1.51968700	      0.36452200	     -0.16992300	      1.36014700	      0.34622600	     -0.40605800	      1.54188700	      0.36450900	     -0.25612200	      1.35004800	      0.34919300	     -0.31742500	      1.46063600	      0.08252800	     -0.18508700	      1.29999200	      0.06477500	     -0.40114000	      1.47915000	      0.08308600	     -0.24388600	      1.30873400	      0.06045600	     -0.33666500	      1.40412400	      1.04433700	     -0.32118500	      1.49477000	      0.97711300	     -0.26934400	      1.49700100	      0.97079200	     -0.35752800	      1.48129400	      0.98715500	     -0.30708500	      1.52101700	      0.85151900	     -0.30144200	      1.61490800	      0.49253700	     -0.22454400	      1.44088800	      0.41386900	     -0.45997700	      1.52203300	      0.51613300	     -0.18801100	      1.44157500	      0.47071600	     -0.37891000	      1.54751600	      0.43244000	     -0.18383200	      1.41820600	      0.38938400	     -0.36107300	      1.48091700	      0.17698600	     -0.10946600	      1.42083700	      0.16040000	     -0.34461900	      1.50032200	      0.22089200	     -0.17255000	      1.36488300	      0.21855600	     -0.36289400	      1.55130400	      0.05532900	     -0.19436100	      1.39343900	      0.03671700	     -0.37809900	      0.00000000	      0.00000000	      0.00000000	      0.83132501	      0.00000000	     -0.24050993	      1.04006987	    140.92833114	      9.08653959	      1.40095520	      0.00000000	     -0.37868683	      0.00000000	      0.00000000	      0.00000000	      0.00000000	      0.02712848	      0.00000000	      1.40879953	      0.63339233	     -0.29798841	      1.40357149	      0.64634699	     -0.24787094	      1.41942155	      0.64495987	     -0.36423320	      1.52980208	      0.36378825	     -0.21479134	      1.36021864	      0.34720576	     -0.35806817	      1.47524023	      0.07975610	     -0.21510884	      1.30971885	      0.06173387	     -0.37027913	      1.45697618	      0.70649362	     -0.30058241	      1.44525671	      0.70751929	     -0.21454427	      1.46869576	      0.70546800	     -0.38662052	      1.32198560	      0.72734678	     -0.26455891	      1.33015263	      0.72599304	     -0.34928954	      1.51968729	      0.36452231	     -0.16992319	      1.36014736	      0.34622630	     -0.40605810	      1.54188716	      0.36450946	     -0.25612217	      1.35004807	      0.34919274	     -0.31742486	      1.46063602	      0.08252798	     -0.18508746	      1.29999244	      0.06477454	     -0.40114012	      1.47915018	      0.08308585	     -0.24388558	      1.30873382	      0.06045559	     -0.33666506	      1.40412450	      1.04433739	     -0.32118452	      1.49477029	      0.97711289	     -0.26934415	      1.49700117	      0.97079206	     -0.35752758	      1.48129392	      0.98715538	     -0.30708492	      1.52101696	      0.85151857	     -0.30144173	      1.61490810	      0.49253732	     -0.22454363	      1.44088840	      0.41386867	     -0.45997730	      1.52203310	      0.51613307	     -0.18801139	      1.44157517	      0.47071576	     -0.37890989	      1.54751587	      0.43244016	     -0.18383196	      1.41820562	      0.38938382	     -0.36107260	      1.48091662	      0.17698570	     -0.10946605	      1.42083728	      0.16040042	     -0.34461895	      1.50032187	      0.22089170	     -0.17255050	      1.36488271	      0.21855624	     -0.36289379	      1.55130374	      0.05532884	     -0.19436117	      1.39343905	      0.03671740	     -0.37809873
      0.70833000	      1.46252729	      0.69021904	     -0.29470019	      3.70906863	      0.16163635	     -7.51439427	     21.69537282	     -2.30279262	     -2.47994038	    -31.44850589	      0.76903534	    -15.86710398	      1.67690495	     -7.25527770	      2.20553815	      4.34889770	    -22.29888743	     -4.82283920	      2.39841447	      0.00000000	      0.00000000	      0.00000000	      0.00000000	      1.48892390	      0.68015353	     -0.21022019	      1.51335319	      0.68433329	     -0.38289285	      1.47197935	      0.69082824	     -0.29345080	      1.36735316	      0.73445543	     -0.27020937	      1.37885266	      0.73569763	     -0.35472547	      1.41028656	      0.64148890	     -0.24464529	      1.42513817	      0.64277107	     -0.35762838	      1.41771236	      0.64212999	     -0.30113683	      1.54155482	      0.36407580	     -0.17339108	      1.55812421	      0.36306104	     -0.26552556	      1.62654238	      0.49577837	     -0.22417468	      1.52919971	      0.51228833	     -0.19568195	      1.55555825	      0.42859411	     -0.19146253	      1.49128867	      0.07154669	     -0.18397463	      1.51575778	      0.06823626	     -0.23987987	      1.51211953	      0.15614439	     -0.11293371	      1.52264587	      0.21251920	     -0.17618014	      1.53921167	      0.36610276	     -0.21842155	      1.50891574	      0.07875594	     -0.22224842	      1.58812746	      0.04922229	     -0.18289401	      1.35935227	      0.33817332	     -0.41004418	      1.36861373	      0.33497463	     -0.31846375	      1.43115514	      0.39735965	     -0.46980679	      1.44715846	      0.45856119	     -0.39034535	      1.42803844	      0.37783693	     -0.37174718	      1.29294676	      0.05958644	     -0.39997697	      1.31619813	      0.05182978	     -0.33941444	      1.42310997	      0.14453663	     -0.35834303	      1.36912002	      0.21102621	     -0.37026975	      1.35750355	      0.34794930	     -0.36047912	      1.30715713	      0.06341737	     -0.36321908	      1.38981870	      0.02991562	     -0.40160344	      1.50771892	      0.98674657	     -0.26999873	      1.51298240	      0.98132718	     -0.35837651	      1.41744657	      1.02477193	     -0.31901292	      1.49271297	      0.99394465	     -0.30808510	      1.56395411	      0.87121722	     -0.30148687	      1.42014600	      0.63173600	     -0.29744600	      1.41519000	      0.64484500	     -0.24746300	      1.43033500	      0.64323400	     -0.36391600	      1.54399000	      0.36315500	     -0.21606300	      1.36347000	      0.34769500	     -0.35828400	      1.51060800	      0.07628800	     -0.21126000	      1.31017600	      0.06255700	     -0.37020000	      1.46809400	      0.70502600	     -0.30063700	      1.45689700	      0.70621800	     -0.21453900	      1.47929200	      0.70383500	     -0.38673600	      1.33317700	      0.72551900	     -0.26358900	      1.34077500	      0.72411600	     -0.34842200	      1.53555500	      0.36433700	     -0.17085900	      1.36339700	      0.34679700	     -0.40627600	      1.55393000	      0.36329500	     -0.25672200	      1.35366800	      0.35009100	     -0.31765500	      1.49622700	      0.07846600	     -0.18108300	      1.30039400	      0.06567400	     -0.40103600	      1.51402600	      0.07913800	     -0.23983300	      1.30930100	      0.06134700	     -0.33656800	      1.41620600	      1.04246000	     -0.32063300	      1.50667200	      0.97424800	     -0.26931800	      1.50870200	      0.96853700	     -0.35744400	      1.49321100	      0.98471000	     -0.30694400	      1.53211500	      0.84873200	     -0.30228800	      1.62699200	      0.49292000	     -0.23046900	      1.44615900	      0.41312600	     -0.46017600	      1.53543500	      0.51598000	     -0.19059900	      1.44831800	      0.46955700	     -0.37863300	      1.56192700	      0.43259500	     -0.18598300	      1.42281900	      0.38863100	     -0.36111200	      1.51045900	      0.17549700	     -0.10722200	      1.42230200	      0.16034900	     -0.34490100	      1.52582300	      0.21961900	     -0.17132100	      1.36679100	      0.21901600	     -0.36315500	      1.58856000	      0.05717100	     -0.19152700	      1.39364400	      0.03674600	     -0.37815200	      0.00000000	      0.00000000	      0.00000000	      0.83264783	      0.00000000	     -0.24126785	      2.49671757	    149.09351492	      9.39662008	      1.40163843	      0.00000000	     -0.37834320	      0.00000000	      0.00000000	      0.00000000	      0.00000000	     -0.01546521	      0.00000000	      1.42014599	      0.63173616	     -0.29744583	      1.41518998	      0.64484513	     -0.24746256	      1.43033516	      0.64323378	     -0.36391574	      1.54398978	      0.36315486	     -0.21606317	      1.36346960	      0.34769490	     -0.35828441	      1.51060820	      0.07628753	     -0.21126014	      1.31017554	      0.06255690	     -0.37019995	      1.46809435	      0.70502615	     -0.30063748	      1.45689678	      0.70621753	     -0.21453901	      1.47929180	      0.70383477	     -0.38673595	      1.33317721	      0.72551918	     -0.26358917	      1.34077525	      0.72411579	     -0.34842214	      1.53555453	      0.36433676	     -0.17085862	      1.36339748	      0.34679678	     -0.40627596	      1.55392981	      0.36329463	     -0.25672182	      1.35366774	      0.35009122	     -0.31765503	      1.49622703	      0.07846627	     -0.18108259	      1.30039406	      0.06567372	     -0.40103590	      1.51402605	      0.07913808	     -0.23983327	      1.30930102	      0.06134704	     -0.33656833	      1.41620612	      1.04245985	     -0.32063296	      1.50667202	      0.97424811	     -0.26931840	      1.50870228	      0.96853733	     -0.35744378	      1.49321067	      0.98471010	     -0.30694437	      1.53211498	      0.84873170	     -0.30228847	      1.62699234	      0.49291998	     -0.23046859	      1.44615948	      0.41312581	     -0.46017641	      1.53543484	      0.51597983	     -0.19059928	      1.44831824	      0.46955654	     -0.37863305	      1.56192720	      0.43259516	     -0.18598311	      1.42281902	      0.38863143	     -0.36111209	      1.51045918	      0.17549650	     -0.10722233	      1.42230201	      0.16034897	     -0.34490111	      1.52582276	      0.21961932	     -0.17132078	      1.36679089	      0.21901563	     -0.36315522	      1.58856034	      0.05717060	     -0.19152680	      1.39364362	      0.03674626	     -0.37815154
